<svg width="161" height="73" viewBox="0 0 161 73" fill="none" xmlns="http://www.w3.org/2000/svg">
<path d="M51.5215 0.203613H52.5215V-0.796387H51.5215V0.203613ZM51.5215 27.7969V28.7969H52.5215V27.7969H51.5215ZM51.5215 20.1226H52.5215V19.1226H51.5215V20.1226ZM36.4585 18.3325L37.1656 17.6254L37.1618 17.6217L36.4585 18.3325ZM36.4204 9.64893L35.7133 8.94181L35.7095 8.94561L36.4204 9.64893ZM51.5215 7.85889V8.85889H52.5215V7.85889H51.5215ZM51.5215 -0.796387H40.8003V1.20361H51.5215V-0.796387ZM40.8003 -0.796387C36.715 -0.796387 33.2039 0.653839 30.3241 3.53362L31.7384 4.94783C34.2414 2.44479 37.243 1.20361 40.8003 1.20361V-0.796387ZM30.3241 3.53362C27.4451 6.41269 25.9941 9.9171 25.9941 13.9907H27.9941C27.9941 10.4472 29.2346 7.45157 31.7384 4.94783L30.3241 3.53362ZM25.9941 13.9907C25.9941 18.076 27.4444 21.5871 30.3241 24.4669L31.7384 23.0527C29.2353 20.5496 27.9941 17.548 27.9941 13.9907H25.9941ZM30.3241 24.4669C33.2039 27.3466 36.715 28.7969 40.8003 28.7969V26.7969C37.243 26.7969 34.2414 25.5557 31.7384 23.0527L30.3241 24.4669ZM40.8003 28.7969H51.5215V26.7969H40.8003V28.7969ZM52.5215 27.7969V20.1226H50.5215V27.7969H52.5215ZM51.5215 19.1226H40.8003V21.1226H51.5215V19.1226ZM40.8003 19.1226C39.3619 19.1226 38.1697 18.6296 37.1656 17.6254L35.7514 19.0396C37.134 20.4222 38.8363 21.1226 40.8003 21.1226V19.1226ZM37.1618 17.6217C36.1462 16.6167 35.6494 15.4256 35.6494 13.9907H33.6494C33.6494 15.9581 34.3587 17.6616 35.7551 19.0434L37.1618 17.6217ZM35.6494 13.9907C35.6494 12.549 36.1386 11.3556 37.1313 10.3522L35.7095 8.94561C34.3409 10.329 33.6494 12.0301 33.6494 13.9907H35.6494ZM37.1275 10.356C38.1286 9.355 39.3321 8.85889 40.8003 8.85889V6.85889C38.8154 6.85889 37.099 7.55614 35.7133 8.94182L37.1275 10.356ZM40.8003 8.85889H51.5215V6.85889H40.8003V8.85889ZM52.5215 7.85889V0.203613H50.5215V7.85889H52.5215ZM60.1479 0.203613H61.1479V-0.796387H60.1479V0.203613ZM52.4736 0.203613V-0.796387H51.4736V0.203613H52.4736ZM52.4736 27.7969H51.4736V28.7969H52.4736V27.7969ZM73.4209 27.7969V28.7969H74.4209V27.7969H73.4209ZM73.4209 20.1226H74.4209V19.1226H73.4209V20.1226ZM60.1479 20.1226H59.1479V21.1226H60.1479V20.1226ZM60.1479 -0.796387H52.4736V1.20361H60.1479V-0.796387ZM51.4736 0.203613V27.7969H53.4736V0.203613H51.4736ZM52.4736 28.7969H73.4209V26.7969H52.4736V28.7969ZM74.4209 27.7969V20.1226H72.4209V27.7969H74.4209ZM73.4209 19.1226H60.1479V21.1226H73.4209V19.1226ZM61.1479 20.1226V0.203613H59.1479V20.1226H61.1479ZM74.373 27.7969H73.373V28.7969H74.373V27.7969ZM82.0474 27.7969V28.7969H83.0474V27.7969H82.0474ZM82.0474 0.203613H83.0474V-0.796387H82.0474V0.203613ZM74.373 0.203613V-0.796387H73.373V0.203613H74.373ZM74.373 28.7969H82.0474V26.7969H74.373V28.7969ZM83.0474 27.7969V0.203613H81.0474V27.7969H83.0474ZM82.0474 -0.796387H74.373V1.20361H82.0474V-0.796387ZM73.373 0.203613V27.7969H75.373V0.203613H73.373ZM107.546 0.203613H108.546V-0.796387H107.546V0.203613ZM107.546 27.7969V28.7969H108.546V27.7969H107.546ZM107.546 20.1226H108.546V19.1226H107.546V20.1226ZM92.4829 18.3325L93.19 17.6254L93.1863 17.6217L92.4829 18.3325ZM92.4448 9.64893L91.7377 8.94181L91.7339 8.94561L92.4448 9.64893ZM107.546 7.85889V8.85889H108.546V7.85889H107.546ZM107.546 -0.796387H96.8247V1.20361H107.546V-0.796387ZM96.8247 -0.796387C92.7394 -0.796387 89.2283 0.653839 86.3486 3.53362L87.7628 4.94783C90.2658 2.44479 93.2675 1.20361 96.8247 1.20361V-0.796387ZM86.3486 3.53362C83.4695 6.41269 82.0186 9.9171 82.0186 13.9907H84.0186C84.0186 10.4472 85.259 7.45157 87.7628 4.94783L86.3486 3.53362ZM82.0186 13.9907C82.0186 18.076 83.4688 21.5871 86.3486 24.4669L87.7628 23.0527C85.2597 20.5496 84.0186 17.548 84.0186 13.9907H82.0186ZM86.3486 24.4669C89.2283 27.3466 92.7394 28.7969 96.8247 28.7969V26.7969C93.2675 26.7969 90.2658 25.5557 87.7628 23.0527L86.3486 24.4669ZM96.8247 28.7969H107.546V26.7969H96.8247V28.7969ZM108.546 27.7969V20.1226H106.546V27.7969H108.546ZM107.546 19.1226H96.8247V21.1226H107.546V19.1226ZM96.8247 19.1226C95.3864 19.1226 94.1942 18.6296 93.19 17.6254L91.7758 19.0396C93.1584 20.4222 94.8607 21.1226 96.8247 21.1226V19.1226ZM93.1863 17.6217C92.1706 16.6167 91.6738 15.4256 91.6738 13.9907H89.6738C89.6738 15.9581 90.3831 17.6616 91.7796 19.0434L93.1863 17.6217ZM91.6738 13.9907C91.6738 12.549 92.163 11.3556 93.1557 10.3522L91.7339 8.94561C90.3653 10.329 89.6738 12.0301 89.6738 13.9907H91.6738ZM93.1519 10.356C94.153 9.355 95.3565 8.85889 96.8247 8.85889V6.85889C94.8398 6.85889 93.1234 7.55614 91.7377 8.94182L93.1519 10.356ZM96.8247 8.85889H107.546V6.85889H96.8247V8.85889ZM108.546 7.85889V0.203613H106.546V7.85889H108.546ZM124.113 0.203613V-0.796387H123.608L123.308 -0.389537L124.113 0.203613ZM116.172 10.9819H115.172V14.0252L116.977 11.5751L116.172 10.9819ZM116.172 0.203613H117.172V-0.796387H116.172V0.203613ZM108.498 0.203613V-0.796387H107.498V0.203613H108.498ZM108.498 27.7969H107.498V28.7969H108.498V27.7969ZM116.172 27.7969V28.7969H117.172V27.7969H116.172ZM116.172 20.77L116.926 20.1125L115.172 18.1031V20.77H116.172ZM122.304 27.7969L121.551 28.4544L121.85 28.7969H122.304V27.7969ZM142.356 27.7969V28.7969H143.356V27.7969H142.356ZM142.356 20.1226H143.356V19.1226H142.356V20.1226ZM126.018 20.1226L125.261 20.7761L125.56 21.1226H126.018V20.1226ZM122.285 15.7998L121.486 15.1981L121.001 15.8426L121.528 16.4533L122.285 15.7998ZM134.035 0.203613L134.833 0.805328L136.04 -0.796387H134.035V0.203613ZM123.308 -0.389537L115.367 10.3888L116.977 11.5751L124.918 0.796764L123.308 -0.389537ZM117.172 10.9819V0.203613H115.172V10.9819H117.172ZM116.172 -0.796387H108.498V1.20361H116.172V-0.796387ZM107.498 0.203613V27.7969H109.498V0.203613H107.498ZM108.498 28.7969H116.172V26.7969H108.498V28.7969ZM117.172 27.7969V20.77H115.172V27.7969H117.172ZM115.419 21.4275L121.551 28.4544L123.058 27.1394L116.926 20.1125L115.419 21.4275ZM122.304 28.7969H142.356V26.7969H122.304V28.7969ZM143.356 27.7969V20.1226H141.356V27.7969H143.356ZM142.356 19.1226H126.018V21.1226H142.356V19.1226ZM126.774 19.469L123.042 15.1463L121.528 16.4533L125.261 20.7761L126.774 19.469ZM123.084 16.4015L134.833 0.805328L133.236 -0.398102L121.486 15.1981L123.084 16.4015ZM134.035 -0.796387H124.113V1.20361H134.035V-0.796387ZM0.219727 45.2036V44.2036H-0.780273V45.2036H0.219727ZM0.219727 52.8589H-0.780273V53.8589H0.219727V52.8589ZM7.30371 52.8589H8.30371V51.8589H7.30371V52.8589ZM7.30371 72.7969H6.30371V73.7969H7.30371V72.7969ZM14.978 72.7969V73.7969H15.978V72.7969H14.978ZM14.978 52.8589V51.8589H13.978V52.8589H14.978ZM22.062 52.8589V53.8589H23.062V52.8589H22.062ZM22.062 45.2036H23.062V44.2036H22.062V45.2036ZM-0.780273 45.2036V52.8589H1.21973V45.2036H-0.780273ZM0.219727 53.8589H7.30371V51.8589H0.219727V53.8589ZM6.30371 52.8589V72.7969H8.30371V52.8589H6.30371ZM7.30371 73.7969H14.978V71.7969H7.30371V73.7969ZM15.978 72.7969V52.8589H13.978V72.7969H15.978ZM14.978 53.8589H22.062V51.8589H14.978V53.8589ZM23.062 52.8589V45.2036H21.062V52.8589H23.062ZM22.062 44.2036H0.219727V46.2036H22.062V44.2036ZM31.355 63.3325L32.0621 62.6254L32.0583 62.6217L31.355 63.3325ZM31.3169 54.6489L30.6098 53.9418L30.606 53.9456L31.3169 54.6489ZM42.1714 54.6489L42.8823 53.9456L42.8785 53.9418L42.1714 54.6489ZM42.1333 63.3325L41.4299 62.6217L41.4262 62.6254L42.1333 63.3325ZM35.6968 64.1226C34.2584 64.1226 33.0662 63.6296 32.0621 62.6254L30.6479 64.0396C32.0305 65.4222 33.7328 66.1226 35.6968 66.1226V64.1226ZM32.0583 62.6217C31.0427 61.6167 30.5459 60.4256 30.5459 58.9907H28.5459C28.5459 60.9581 29.2552 62.6616 30.6516 64.0434L32.0583 62.6217ZM30.5459 58.9907C30.5459 57.549 31.0351 56.3556 32.0278 55.3522L30.606 53.9456C29.2374 55.329 28.5459 57.0301 28.5459 58.9907H30.5459ZM32.024 55.356C33.025 54.355 34.2286 53.8589 35.6968 53.8589V51.8589C33.7118 51.8589 31.9955 52.5561 30.6098 53.9418L32.024 55.356ZM35.6968 53.8589H37.7915V51.8589H35.6968V53.8589ZM37.7915 53.8589C39.2597 53.8589 40.4632 54.355 41.4643 55.356L42.8785 53.9418C41.4928 52.5561 39.7764 51.8589 37.7915 51.8589V53.8589ZM41.4605 55.3522C42.4532 56.3556 42.9424 57.549 42.9424 58.9907H44.9424C44.9424 57.0301 44.2509 55.329 42.8823 53.9456L41.4605 55.3522ZM42.9424 58.9907C42.9424 60.4256 42.4456 61.6167 41.4299 62.6217L42.8367 64.0434C44.2331 62.6616 44.9424 60.9581 44.9424 58.9907H42.9424ZM41.4262 62.6254C40.4221 63.6296 39.2298 64.1226 37.7915 64.1226V66.1226C39.7555 66.1226 41.4578 65.4222 42.8404 64.0396L41.4262 62.6254ZM37.7915 64.1226H35.6968V66.1226H37.7915V64.1226ZM35.6968 44.2036C31.6115 44.2036 28.1004 45.6538 25.2206 48.5336L26.6348 49.9478C29.1379 47.4448 32.1395 46.2036 35.6968 46.2036V44.2036ZM25.2206 48.5336C22.3416 51.4127 20.8906 54.9171 20.8906 58.9907H22.8906C22.8906 55.4472 24.1311 52.4516 26.6348 49.9478L25.2206 48.5336ZM20.8906 58.9907C20.8906 63.076 22.3409 66.5871 25.2206 69.4669L26.6348 68.0527C24.1318 65.5496 22.8906 62.548 22.8906 58.9907H20.8906ZM25.2206 69.4669C28.1004 72.3466 31.6115 73.7969 35.6968 73.7969V71.7969C32.1395 71.7969 29.1379 70.5557 26.6348 68.0527L25.2206 69.4669ZM35.6968 73.7969H37.7915V71.7969H35.6968V73.7969ZM37.7915 73.7969C41.8768 73.7969 45.3879 72.3466 48.2677 69.4669L46.8534 68.0527C44.3504 70.5557 41.3488 71.7969 37.7915 71.7969V73.7969ZM48.2677 69.4669C51.1474 66.5871 52.5977 63.076 52.5977 58.9907H50.5977C50.5977 62.548 49.3565 65.5496 46.8534 68.0527L48.2677 69.4669ZM52.5977 58.9907C52.5977 54.9171 51.1467 51.4127 48.2677 48.5336L46.8534 49.9478C49.3572 52.4516 50.5977 55.4472 50.5977 58.9907H52.5977ZM48.2677 48.5336C45.3879 45.6538 41.8768 44.2036 37.7915 44.2036V46.2036C41.3488 46.2036 44.3504 47.4448 46.8534 49.9478L48.2677 48.5336ZM37.7915 44.2036H35.6968V46.2036H37.7915V44.2036ZM68.9839 63.3325L69.691 62.6254L69.6872 62.6217L68.9839 63.3325ZM68.9458 54.6489L68.2387 53.9418L68.2349 53.9456L68.9458 54.6489ZM79.8003 54.6489L80.5112 53.9456L80.5074 53.9418L79.8003 54.6489ZM79.7622 63.3325L79.0588 62.6217L79.0551 62.6254L79.7622 63.3325ZM73.3257 64.1226C71.8873 64.1226 70.6951 63.6296 69.691 62.6254L68.2768 64.0396C69.6594 65.4222 71.3617 66.1226 73.3257 66.1226V64.1226ZM69.6872 62.6217C68.6716 61.6167 68.1748 60.4256 68.1748 58.9907H66.1748C66.1748 60.9581 66.8841 62.6616 68.2805 64.0434L69.6872 62.6217ZM68.1748 58.9907C68.1748 57.549 68.664 56.3556 69.6567 55.3522L68.2349 53.9456C66.8663 55.329 66.1748 57.0301 66.1748 58.9907H68.1748ZM69.6529 55.356C70.6539 54.355 71.8575 53.8589 73.3257 53.8589V51.8589C71.3408 51.8589 69.6244 52.5561 68.2387 53.9418L69.6529 55.356ZM73.3257 53.8589H75.4204V51.8589H73.3257V53.8589ZM75.4204 53.8589C76.8886 53.8589 78.0921 54.355 79.0932 55.356L80.5074 53.9418C79.1217 52.5561 77.4053 51.8589 75.4204 51.8589V53.8589ZM79.0894 55.3522C80.0821 56.3556 80.5713 57.549 80.5713 58.9907H82.5713C82.5713 57.0301 81.8798 55.329 80.5112 53.9456L79.0894 55.3522ZM80.5713 58.9907C80.5713 60.4256 80.0745 61.6167 79.0589 62.6217L80.4656 64.0434C81.862 62.6616 82.5713 60.9581 82.5713 58.9907H80.5713ZM79.0551 62.6254C78.051 63.6296 76.8587 64.1226 75.4204 64.1226V66.1226C77.3844 66.1226 79.0867 65.4222 80.4693 64.0396L79.0551 62.6254ZM75.4204 64.1226H73.3257V66.1226H75.4204V64.1226ZM73.3257 44.2036C69.2404 44.2036 65.7293 45.6538 62.8495 48.5336L64.2637 49.9478C66.7668 47.4448 69.7684 46.2036 73.3257 46.2036V44.2036ZM62.8495 48.5336C59.9705 51.4127 58.5195 54.9171 58.5195 58.9907H60.5195C60.5195 55.4472 61.76 52.4516 64.2637 49.9478L62.8495 48.5336ZM58.5195 58.9907C58.5195 63.076 59.9698 66.5871 62.8495 69.4669L64.2637 68.0527C61.7607 65.5496 60.5195 62.548 60.5195 58.9907H58.5195ZM62.8495 69.4669C65.7293 72.3466 69.2404 73.7969 73.3257 73.7969V71.7969C69.7684 71.7969 66.7668 70.5557 64.2637 68.0527L62.8495 69.4669ZM73.3257 73.7969H75.4204V71.7969H73.3257V73.7969ZM75.4204 73.7969C79.5057 73.7969 83.0168 72.3466 85.8966 69.4669L84.4823 68.0527C81.9793 70.5557 78.9777 71.7969 75.4204 71.7969V73.7969ZM85.8966 69.4669C88.7763 66.5871 90.2266 63.076 90.2266 58.9907H88.2266C88.2266 62.548 86.9854 65.5496 84.4823 68.0527L85.8966 69.4669ZM90.2266 58.9907C90.2266 54.9171 88.7756 51.4127 85.8966 48.5336L84.4823 49.9478C86.9861 52.4516 88.2266 55.4472 88.2266 58.9907H90.2266ZM85.8966 48.5336C83.0168 45.6538 79.5057 44.2036 75.4204 44.2036V46.2036C78.9777 46.2036 81.9793 47.4448 84.4823 49.9478L85.8966 48.5336ZM75.4204 44.2036H73.3257V46.2036H75.4204V44.2036ZM90.1787 45.2036V44.2036H89.1787V45.2036H90.1787ZM90.1787 72.7969H89.1787V73.7969H90.1787V72.7969ZM97.853 72.7969V73.7969H98.853V72.7969H97.853ZM97.853 65.7319V64.7319H96.853V65.7319H97.853ZM103.204 65.7319V66.732L103.213 66.7319L103.204 65.7319ZM110.402 62.7041L111.112 63.409L111.114 63.4067L110.402 62.7041ZM110.402 48.2505L109.691 48.9531L109.693 48.9553L110.402 48.2505ZM103.204 45.2036L103.213 44.2036H103.204V45.2036ZM97.853 57.7529H96.853V58.7529H97.853V57.7529ZM97.853 53.9824V52.9824H96.853V53.9824H97.853ZM89.1787 45.2036V72.7969H91.1787V45.2036H89.1787ZM90.1787 73.7969H97.853V71.7969H90.1787V73.7969ZM98.853 72.7969V65.7319H96.853V72.7969H98.853ZM97.853 66.7319H103.204V64.7319H97.853V66.7319ZM103.213 66.7319C106.294 66.7041 108.945 65.5895 111.112 63.4089L109.693 61.9993C107.899 63.8051 105.751 64.7089 103.195 64.732L103.213 66.7319ZM111.114 63.4067C113.279 61.2137 114.373 58.5492 114.373 55.4678H112.373C112.373 58.0231 111.486 60.1828 109.691 62.0015L111.114 63.4067ZM114.373 55.4678C114.373 52.3862 113.279 49.7268 111.112 47.5456L109.693 48.9553C111.487 50.7605 112.373 52.9126 112.373 55.4678H114.373ZM111.114 47.5479C108.948 45.354 106.296 44.2314 103.213 44.2037L103.195 46.2036C105.749 46.2266 107.896 47.1353 109.691 48.9531L111.114 47.5479ZM103.204 44.2036H90.1787V46.2036H103.204V44.2036ZM98.853 57.7529V53.9824H96.853V57.7529H98.853ZM97.853 54.9824H102.519V52.9824H97.853V54.9824ZM102.519 54.9824C102.774 54.9824 102.964 55.0611 103.144 55.2418L104.559 53.8276C104.003 53.2719 103.304 52.9824 102.519 52.9824V54.9824ZM103.144 55.2418C103.325 55.4225 103.404 55.6125 103.404 55.8677H105.404C105.404 55.0819 105.114 54.3832 104.559 53.8276L103.144 55.2418ZM103.404 55.8677C103.404 56.1229 103.325 56.3129 103.144 56.4936L104.559 57.9078C105.114 57.3521 105.404 56.6535 105.404 55.8677H103.404ZM103.144 56.4936C102.964 56.6743 102.774 56.7529 102.519 56.7529V58.7529C103.304 58.7529 104.003 58.4634 104.559 57.9078L103.144 56.4936ZM102.519 56.7529H97.853V58.7529H102.519V56.7529ZM114.325 45.2036V44.2036H113.325V45.2036H114.325ZM114.325 72.7969H113.325V73.7969H114.325V72.7969ZM134.32 72.7969V73.7969H135.32V72.7969H134.32ZM134.32 65.1226H135.32V64.1226H134.32V65.1226ZM122 65.1226H121V66.1226H122V65.1226ZM122 62.8374V61.8374H121V62.8374H122ZM134.32 62.8374V63.8374H135.32V62.8374H134.32ZM134.32 55.1631H135.32V54.1631H134.32V55.1631ZM122 55.1631H121V56.1631H122V55.1631ZM122 52.8589V51.8589H121V52.8589H122ZM134.32 52.8589V53.8589H135.32V52.8589H134.32ZM134.32 45.2036H135.32V44.2036H134.32V45.2036ZM113.325 45.2036V72.7969H115.325V45.2036H113.325ZM114.325 73.7969H134.32V71.7969H114.325V73.7969ZM135.32 72.7969V65.1226H133.32V72.7969H135.32ZM134.32 64.1226H122V66.1226H134.32V64.1226ZM123 65.1226V62.8374H121V65.1226H123ZM122 63.8374H134.32V61.8374H122V63.8374ZM135.32 62.8374V55.1631H133.32V62.8374H135.32ZM134.32 54.1631H122V56.1631H134.32V54.1631ZM123 55.1631V52.8589H121V55.1631H123ZM122 53.8589H134.32V51.8589H122V53.8589ZM135.32 52.8589V45.2036H133.32V52.8589H135.32ZM134.32 44.2036H114.325V46.2036H134.32V44.2036ZM153.135 59.543L152.321 60.1236L154.135 62.6675V59.543H153.135ZM142.909 45.2036L143.723 44.623L143.424 44.2036H142.909V45.2036ZM135.272 45.2036V44.2036H134.272V45.2036H135.272ZM135.272 72.7969H134.272V73.7969H135.272V72.7969ZM142.947 72.7969V73.7969H143.947V72.7969H142.947ZM142.947 58.4385L143.762 57.8598L141.947 55.3011V58.4385H142.947ZM153.135 72.7969L152.319 73.3755L152.618 73.7969H153.135V72.7969ZM160.809 72.7969V73.7969H161.809V72.7969H160.809ZM160.809 45.2036H161.809V44.2036H160.809V45.2036ZM153.135 45.2036V44.2036H152.135V45.2036H153.135ZM153.949 58.9623L143.723 44.623L142.095 45.7842L152.321 60.1236L153.949 58.9623ZM142.909 44.2036H135.272V46.2036H142.909V44.2036ZM134.272 45.2036V72.7969H136.272V45.2036H134.272ZM135.272 73.7969H142.947V71.7969H135.272V73.7969ZM143.947 72.7969V58.4385H141.947V72.7969H143.947ZM142.131 59.0172L152.319 73.3755L153.95 72.2182L143.762 57.8598L142.131 59.0172ZM153.135 73.7969H160.809V71.7969H153.135V73.7969ZM161.809 72.7969V45.2036H159.809V72.7969H161.809ZM160.809 44.2036H153.135V46.2036H160.809V44.2036ZM152.135 45.2036V59.543H154.135V45.2036H152.135Z" fill="white"/>
</svg>
