<svg width="152" height="31" viewBox="0 0 152 31" fill="none" xmlns="http://www.w3.org/2000/svg">
<path d="M7.40123 30.41C5.2419 30.41 3.58823 29.795 2.44023 28.565C1.31957 27.335 0.759234 25.5993 0.759234 23.358V7.942C0.759234 5.70067 1.31957 3.965 2.44023 2.735C3.58823 1.505 5.2419 0.889998 7.40123 0.889998C9.56057 0.889998 11.2006 1.505 12.3212 2.735C13.4692 3.965 14.0432 5.70067 14.0432 7.942V10.976H9.77923V7.655C9.77923 5.87833 9.02757 4.99 7.52424 4.99C6.0209 4.99 5.26923 5.87833 5.26923 7.655V23.686C5.26923 25.4353 6.0209 26.31 7.52424 26.31C9.02757 26.31 9.77923 25.4353 9.77923 23.686V19.299H14.0432V23.358C14.0432 25.5993 13.4692 27.335 12.3212 28.565C11.2006 29.795 9.56057 30.41 7.40123 30.41ZM23.3406 30.41C21.1266 30.41 19.432 29.7813 18.2566 28.524C17.0813 27.2667 16.4936 25.49 16.4936 23.194V8.106C16.4936 5.81 17.0813 4.03333 18.2566 2.776C19.432 1.51867 21.1266 0.889998 23.3406 0.889998C25.5546 0.889998 27.2493 1.51867 28.4246 2.776C29.6 4.03333 30.1876 5.81 30.1876 8.106V23.194C30.1876 25.49 29.6 27.2667 28.4246 28.524C27.2493 29.7813 25.5546 30.41 23.3406 30.41ZM23.3406 26.31C24.8986 26.31 25.6776 25.367 25.6776 23.481V7.819C25.6776 5.933 24.8986 4.99 23.3406 4.99C21.7826 4.99 21.0036 5.933 21.0036 7.819V23.481C21.0036 25.367 21.7826 26.31 23.3406 26.31ZM33.2376 1.3H38.8956L43.2826 18.479H43.3646V1.3H47.3826V30H42.7496L37.3376 9.049H37.2556V30H33.2376V1.3ZM54.2607 5.4H49.5457V1.3H63.4857V5.4H58.7707V30H54.2607V5.4ZM67.2724 1.3H73.3814L78.0554 30H73.5454L72.7254 24.301V24.383H67.6004L66.7804 30H62.5984L67.2724 1.3ZM72.1924 20.488L70.1834 6.302H70.1014L68.1334 20.488H72.1924ZM86.5184 30.41C84.3591 30.41 82.7054 29.795 81.5574 28.565C80.4368 27.335 79.8764 25.5993 79.8764 23.358V7.942C79.8764 5.70067 80.4368 3.965 81.5574 2.735C82.7054 1.505 84.3591 0.889998 86.5184 0.889998C88.6778 0.889998 90.3178 1.505 91.4384 2.735C92.5864 3.965 93.1604 5.70067 93.1604 7.942V10.976H88.8964V7.655C88.8964 5.87833 88.1448 4.99 86.6414 4.99C85.1381 4.99 84.3864 5.87833 84.3864 7.655V23.686C84.3864 25.4353 85.1381 26.31 86.6414 26.31C88.1448 26.31 88.8964 25.4353 88.8964 23.686V19.299H93.1604V23.358C93.1604 25.5993 92.5864 27.335 91.4384 28.565C90.3178 29.795 88.6778 30.41 86.5184 30.41ZM99.3847 5.4H94.6697V1.3H108.61V5.4H103.895V30H99.3847V5.4ZM117.36 1.3H123.797L126.667 21.841H126.749L129.619 1.3H136.056V30H131.792V8.27H131.71L128.43 30H124.658L121.378 8.27H121.296V30H117.36V1.3ZM139.421 1.3H151.721V5.4H143.931V12.985H150.122V17.085H143.931V25.9H151.721V30H139.421V1.3Z" fill="white"/>
</svg>
